<svg
  width="56"
  height="56"
  viewBox="0 0 56 56"
  fill="none"
  xmlns="http://www.w3.org/2000/svg"
>
  <path
    d="M38.0955 32.3313C37.5486 31.7734 36.6408 31.7734 36.083 32.3203L29.4221 38.9594V13.6609C29.4221 12.8844 28.7877 12.25 28.0002 12.25C27.2127 12.25 26.5783 12.8844 26.5783 13.6609V38.9594L19.9174 32.3094C19.3596 31.7625 18.4627 31.7734 17.9049 32.3203C17.358 32.8781 17.358 33.7641 17.9158 34.3219L26.994 43.3344C27.1252 43.4547 27.2674 43.5531 27.4424 43.6297C27.6174 43.7062 27.8033 43.7391 27.9893 43.7391C28.3611 43.7391 28.7111 43.5969 28.9846 43.3344L38.0627 34.3219C38.6315 33.7859 38.6424 32.8891 38.0955 32.3313Z"
    fill="white"
  />
</svg>
